<svg version="1.1" id="Layer_1" xmlns="http://www.w3.org/2000/svg" x="0" y="0" viewBox="0 0 214.8 51.2" xml:space="preserve"><g id="XMLID_4_"><path id="XMLID_5_" d="M26.2 5.7c.5.2.7.6.6 1.1-.1.3-.4.9-1 1.7-.9 1.4-1.4 2.4-1.6 3.2-.2 1.2.3 2.2 1.7 3.1.9.6 2.2.3 4-.9 1.1-.7 2.7-2 4.9-4 2-1.8 3.3-2.9 4.1-3.4 1.7-.9 3.5-1.2 5.2-.8 2.3.5 3.9 1.9 5 4.4 1.1 2.5 1.5 5.7 1.1 9.8-.4 4.4-1.5 8.5-3.4 12.3-2.2 4.4-5.1 7.7-8.6 10-3.8 2.3-7.8 3.6-12 3.7s-8-.8-11.5-2.8c-3.5-2-6-4.9-7.6-8.6-1.4-3.2-1.7-6.7-.9-10.5.7-3.5 2.2-6.9 4.4-10 2.3-3.1 4.8-5.5 7.6-7 2.9-1.7 5.5-2.1 8-1.3zm3.5 18.7c.5 1.2 1.5 1.8 2.9 1.8s2.9-.5 4.4-1.5c1.5-1 2.7-2.2 3.3-3.5.8-1.7.9-3.2.3-4.8-.4-1.1-1.2-1.5-2.6-1.2s-2.8.9-4.3 2-2.7 2.3-3.5 3.6c-.7 1.3-.9 2.5-.5 3.6z"/></g><g id="XMLID_2_"><g id="XMLID_3_"><path id="XMLID_31_" d="M63 8.8l1.9 5.8.5-1.9 1.4-4.1h2.8V9l-3.8 10.6h-1.6l-1.8-5.3-1.8 5.3h-1.5L55.2 9v-.4H58l1.4 4.1.5 1.9 1.8-5.8H63z"/><path id="XMLID_33_" d="M71.2 19.5V8.6H76c5.2 0 5.2 8.1 0 8.1h-2v2.8h-2.8zm4.8-8.4h-2v3.1h2c1.5 0 1.6-3.1 0-3.1z"/><path id="XMLID_36_" d="M92.7 18.2h-4.3l-.6 1.4H85v-.4l4.9-10.7h1.2L96 19.1v.4h-2.7l-.6-1.3zm-2.2-5.3l-1.2 2.9h2.5l-1.3-2.9z"/><path id="XMLID_39_" d="M101.6 19.5h-4.1V8.6h4.1c7.1 0 7.1 10.9 0 10.9zm-1.3-2.5h1.3c3.5 0 3.5-5.8 0-5.8h-1.3V17z"/><path id="XMLID_42_" d="M118.7 8.6h1v11h-2.9v-4.9l-2.3 2.4h-.3l-2.3-2.4v4.9H109v-11h1l4.3 4.8 4.4-4.8z"/><path id="XMLID_44_" d="M127.1 17.1v2.5h-5.5v-2.5h1.4v-6h-1.3V8.7h5.3v2.4h-1.3v6h1.4z"/><path id="XMLID_46_" d="M131.8 14.2v5.4h-2.9v-11h1l5.5 5.4V8.6h2.9v11h-1l-5.5-5.4z"/><path id="XMLID_48_" d="M150.8 16.3c0-.8-.9-.9-2-1-2.4-.2-3.9-1-4-3.4-.1-4.7 8.4-4.7 8.3 0h-2.7c0-1.5-2.9-1.3-3 0-.1.8.8 1 1.7 1.1 2.2.2 4.3.6 4.3 3.3 0 4.6-8.9 4.7-8.8-.1h2.7c.1 1.4 3.5 1.4 3.5.1z"/><path id="XMLID_50_" d="M160.5 8.5c2.3 0 4.7 1.2 5.1 4.2h-2.8c-.4-1.1-1.2-1.6-2.4-1.6-1.6 0-2.7 1.2-2.7 3 0 1.6 1.1 3 2.7 3 1.2 0 2.1-.6 2.4-1.8h2.8c-.4 3.1-2.9 4.3-5.2 4.3-2.8 0-5.6-1.9-5.6-5.6.1-3.7 2.9-5.5 5.7-5.5z"/><path id="XMLID_52_" d="M176.9 19.5H174v-4.4h-3.4v4.4h-2.9V8.6h2.9v4h3.4v-4h2.9v10.9z"/><path id="XMLID_54_" d="M186.6 11.1h-4v1.5h3.7v2.5h-3.7V17h4.2v2.5h-7V8.6h6.8v2.5z"/><path id="XMLID_56_" d="M198.8 8.6h1v11h-2.9v-4.9l-2.3 2.4h-.3l-2.3-2.4v4.9h-2.9v-11h1l4.3 4.8 4.4-4.8z"/><path id="XMLID_58_" d="M209.4 11.1h-4v1.5h3.7v2.5h-3.7V17h4.2v2.5h-7V8.6h6.8v2.5z"/></g><g id="XMLID_1_"><path id="XMLID_9_" d="M65.7 24c3.1 0 6.3 1.6 7 5.4h-3.8c-.6-1.3-1.6-1.8-3.2-1.8-2.5 0-3.8 1.9-3.8 4.3 0 2.5 1.5 4.2 3.8 4.2 1.6 0 2.6-.4 3.3-1.9h-3.3v-3.4H73c.1 1.5.1 3-.4 4.5-1.1 3.2-4 4.4-6.8 4.4-3.9 0-7.8-2.6-7.8-7.8-.1-5.3 3.8-7.9 7.7-7.9z"/><path id="XMLID_11_" d="M87.8 27.6h-5.7v2.2h5.2v3.5h-5.2V36H88v3.5h-9.8V24.2h9.6v3.4z"/><path id="XMLID_13_" d="M97.6 31.9v7.5h-4V24.1H95l7.7 7.6v-7.5h4v15.3h-1.4l-7.7-7.6z"/><path id="XMLID_15_" d="M122.4 27.6h-5.7v2.2h5.2v3.5h-5.2V36h5.9v3.5h-9.8V24.2h9.6v3.4z"/><path id="XMLID_17_" d="M141.1 38.9v.6h-4.4l-2.6-4.5h-2v4.5h-3.9V24.2h6.7c6 0 7.1 7.3 3.2 9.9l3 4.8zm-6.3-11.3H132v3.8h2.8c2.2 0 2.3-3.7 0-3.8z"/><path id="XMLID_20_" d="M155.1 37.5h-6l-.9 1.9h-3.8v-.6l6.9-14.9h1.7l6.9 14.9v.6H156l-.9-1.9zm-3-7.3l-1.7 4h3.5l-1.8-4z"/><path id="XMLID_23_" d="M161.5 27.6v-3.5h11.4v3.5h-3.7v11.8h-3.9V27.6h-3.8z"/><path id="XMLID_25_" d="M176.6 31.8c0-10.6 15.7-10.6 15.7 0s-15.7 10.6-15.7 0zm11.7 0c0-5.5-7.7-5.5-7.7 0 0 5.6 7.7 5.6 7.7 0z"/><path id="XMLID_28_" d="M210.3 38.9v.6H206l-2.6-4.5h-2v4.5h-3.9V24.2h6.7c6 0 7.1 7.3 3.2 9.9l2.9 4.8zm-6.2-11.3h-2.8v3.8h2.8c2.1 0 2.2-3.7 0-3.8z"/></g></g></svg>